<svg xmlns="http://www.w3.org/2000/svg" viewBox="0 0 24 24" fill="none">
  <defs>
    <linearGradient id="activity-g" x1="12" y1="2" x2="12" y2="22" gradientUnits="userSpaceOnUse">
      <stop stop-color="#e9c46a"/>
      <stop offset="1" stop-color="#f4a261"/>
    </linearGradient>
  </defs>
  <path fill="url(#activity-g)" d="M8.5 4 7.1 6H5a2 2 0 0 0-2 2v9a3 3 0 0 0 3 3h12a3 3 0 0 0 3-3V8a2 2 0 0 0-2-2h-2.1L15.5 4h-7Zm3.5 4a5 5 0 1 1 0 10 5 5 0 0 1 0-10Zm0 2a3 3 0 1 0 0 6 3 3 0 0 0 0-6Z"/>
</svg>
