<svg xmlns="http://www.w3.org/2000/svg" viewBox="0 0 24 24" fill="none">
  <defs>
    <linearGradient id="hotel-g" x1="12" y1="2" x2="12" y2="22" gradientUnits="userSpaceOnUse">
      <stop stop-color="#e76f51"/>
      <stop offset="1" stop-color="#d85a3c"/>
    </linearGradient>
  </defs>
  <path fill="url(#hotel-g)" d="M5 6a3 3 0 0 1 3-3h8a3 3 0 0 1 3 3v4h1a2 2 0 0 1 2 2v7h-2v-2H4v2H2v-7a2 2 0 0 1 2-2h1V6Zm2 0v4h10V6a1 1 0 0 0-1-1H8a1 1 0 0 0-1 1Zm-3 8v1h16v-1a1 1 0 0 0-1-1h-5v1h-4v-1H5a1 1 0 0 0-1 1Z"/>
</svg>
