<svg xmlns="http://www.w3.org/2000/svg" viewBox="0 0 24 24" fill="none">
  <defs>
    <linearGradient id="transport-g" x1="12" y1="2" x2="12" y2="22" gradientUnits="userSpaceOnUse">
      <stop stop-color="#264653"/>
      <stop offset="1" stop-color="#2a9d8f"/>
    </linearGradient>
  </defs>
  <path fill="url(#transport-g)" d="M7 3h10a3 3 0 0 1 3 3v8a3 3 0 0 1-2 2.83V19h1a1 1 0 1 1 0 2h-2a1 1 0 0 1-1-1v-2H8v2a1 1 0 0 1-1 1H5a1 1 0 1 1 0-2h1v-2.17A3 3 0 0 1 4 14V6a3 3 0 0 1 3-3Zm0 2a1 1 0 0 0-1 1v6h12V6a1 1 0 0 0-1-1H7Zm1 9a1.5 1.5 0 1 0 0 3 1.5 1.5 0 0 0 0-3Zm8 0a1.5 1.5 0 1 0 0 3 1.5 1.5 0 0 0 0-3Z"/>
</svg>
